<svg xmlns="http://www.w3.org/2000/svg" xmlns:xlink="http://www.w3.org/1999/xlink" width="200" zoomAndPan="magnify" viewBox="0 0 150 149.999998" height="200" preserveAspectRatio="xMidYMid meet" version="1.0"><defs><g/><clipPath id="9eaf3382c7"><path d="M 112.96875 0 L 37.03125 0 C 32.230469 0 27.625 1.90625 24.226562 5.304688 L 5.304688 24.226562 C 1.90625 27.625 0 32.230469 0 37.03125 L 0 112.96875 C 0 117.769531 1.90625 122.375 5.304688 125.773438 L 24.226562 144.695312 C 27.625 148.09375 32.230469 150 37.03125 150 L 112.96875 150 C 117.769531 150 122.375 148.09375 125.773438 144.695312 L 144.695312 125.773438 C 148.09375 122.375 150 117.769531 150 112.96875 L 150 37.03125 C 150 32.230469 148.09375 27.625 144.695312 24.226562 L 125.773438 5.304688 C 122.375 1.90625 117.769531 0 112.96875 0 " clip-rule="nonzero"/></clipPath><clipPath id="5900d9d757"><path d="M 39.863281 58 L 64 58 L 64 78 L 39.863281 78 Z M 39.863281 58 " clip-rule="nonzero"/></clipPath><clipPath id="438ee25f6b"><path d="M 50 44.265625 L 72 44.265625 L 72 59 L 50 59 Z M 50 44.265625 " clip-rule="nonzero"/></clipPath><clipPath id="1374818285"><path d="M 59 45 L 110.0625 45 L 110.0625 83.265625 L 59 83.265625 Z M 59 45 " clip-rule="nonzero"/></clipPath></defs><rect x="-15" width="180" fill="#ffffff" y="-15" height="179.999997" fill-opacity="1"/><rect x="-15" width="180" fill="#ffffff" y="-15" height="179.999997" fill-opacity="1"/><rect x="-15" width="180" fill="#ffffff" y="-15" height="179.999997" fill-opacity="1"/><g clip-path="url(#9eaf3382c7)"><path stroke-linecap="butt" transform="matrix(0.75, 0, 0, 0.75, 0.00000125, 0.000002)" fill="none" stroke-linejoin="miter" d="M 150.625007 -0.00000266667 L 49.375001 -0.00000266667 C 42.973959 -0.00000266667 36.833334 2.541664 32.302084 7.072914 L 7.072915 32.302083 C 2.541665 36.833333 -0.00000166667 42.973958 -0.00000166667 49.375 L -0.00000166667 150.625006 C -0.00000166667 157.026048 2.541665 163.166674 7.072915 167.697924 L 32.302084 192.927092 C 36.833334 197.458342 42.973959 200.000009 49.375001 200.000009 L 150.625007 200.000009 C 157.026049 200.000009 163.166675 197.458342 167.697925 192.927092 L 192.927093 167.697924 C 197.458343 163.166674 200.00001 157.026048 200.00001 150.625006 L 200.00001 49.375 C 200.00001 42.973958 197.458343 36.833333 192.927093 32.302083 L 167.697925 7.072914 C 163.166675 2.541664 157.026049 -0.00000266667 150.625007 -0.00000266667 " stroke="#000000" stroke-width="24" stroke-opacity="1" stroke-miterlimit="4"/></g><path fill="#605757" d="M 55.828125 76.078125 L 58.617188 80.347656 L 58.417969 77.804688 L 57.203125 76.269531 L 55.824219 76.078125 Z M 43.449219 74.375 L 46.238281 78.648438 L 46.042969 76.101562 L 44.832031 74.566406 Z M 45.925781 74.710938 L 48.714844 78.984375 L 48.515625 76.441406 L 47.308594 74.902344 Z M 48.402344 75.050781 L 51.191406 79.324219 L 50.992188 76.777344 L 49.78125 75.242188 Z M 50.878906 75.386719 L 53.664062 79.660156 L 53.46875 77.117188 L 52.257812 75.578125 Z M 53.351562 75.726562 L 56.140625 80 L 55.945312 77.453125 L 54.726562 75.917969 L 53.347656 75.726562 Z M 53.351562 75.726562 " fill-opacity="1" fill-rule="evenodd"/><g clip-path="url(#5900d9d757)"><path fill="#696969" d="M 58.132812 75.90625 C 55.140625 68.902344 56.285156 64.152344 61.398438 60.925781 Z M 62.816406 60.117188 C 62.925781 60.058594 63.039062 60.003906 63.152344 59.945312 Z M 63.152344 59.945312 L 49.953125 58.136719 C 40.140625 59.925781 37.480469 65.109375 41.980469 73.691406 L 43.660156 75.785156 L 44.226562 75.859375 L 43.132812 74.175781 L 44.914062 74.425781 L 46.195312 76.050781 L 46.199219 76.132812 L 46.703125 76.203125 L 45.609375 74.519531 L 47.390625 74.769531 L 48.667969 76.394531 L 48.675781 76.480469 L 49.179688 76.550781 L 48.085938 74.867188 L 49.867188 75.113281 L 51.144531 76.738281 L 51.152344 76.824219 L 51.652344 76.894531 L 50.558594 75.210938 L 52.339844 75.457031 L 53.621094 77.085938 L 53.625 77.167969 L 54.128906 77.238281 L 53.035156 75.554688 L 54.824219 75.804688 L 56.101562 77.429688 L 56.109375 77.511719 L 56.613281 77.582031 L 55.511719 75.898438 L 57.300781 76.148438 L 58.578125 77.773438 L 58.585938 77.855469 L 59.5 77.984375 L 59.578125 74.214844 L 63.167969 59.976562 Z M 42.421875 64.320312 L 53.796875 65.882812 C 54.289062 65.953125 54.640625 66.410156 54.574219 66.910156 C 54.503906 67.40625 54.046875 67.757812 53.550781 67.6875 L 42.171875 66.125 C 41.675781 66.054688 41.332031 65.59375 41.394531 65.097656 C 41.464844 64.601562 41.921875 64.25 42.421875 64.320312 Z M 42.808594 67.6875 L 54.179688 69.25 C 54.675781 69.320312 55.019531 69.777344 54.957031 70.269531 C 54.894531 70.765625 54.429688 71.117188 53.933594 71.046875 L 42.558594 69.484375 C 42.0625 69.414062 41.714844 68.953125 41.785156 68.457031 C 41.855469 67.960938 42.3125 67.617188 42.808594 67.679688 Z M 43.195312 71.050781 L 54.574219 72.613281 C 55.070312 72.683594 55.414062 73.144531 55.351562 73.640625 C 55.28125 74.140625 54.824219 74.488281 54.328125 74.417969 L 42.949219 72.855469 C 42.453125 72.785156 42.101562 72.328125 42.171875 71.832031 C 42.242188 71.332031 42.699219 70.988281 43.195312 71.050781 Z M 43.195312 71.050781 " fill-opacity="1" fill-rule="evenodd"/></g><g clip-path="url(#438ee25f6b)"><path fill="#ffb800" d="M 59.445312 52.050781 L 60.296875 53.824219 L 58.121094 55.457031 Z M 71.800781 44.667969 L 68.339844 44.363281 L 58.050781 50.960938 L 55.839844 50.992188 L 50.578125 57.214844 L 58.894531 58.238281 L 71.800781 44.664062 Z M 55.945312 52.695312 L 57.675781 52.726562 L 55.839844 56.234375 L 53.632812 55.960938 Z M 55.945312 52.695312 " fill-opacity="1" fill-rule="evenodd"/></g><g clip-path="url(#1374818285)"><path fill="#ffb800" d="M 85.515625 62.265625 L 84.511719 62.265625 L 82.523438 62.089844 L 79.46875 53.582031 L 72.203125 45.039062 L 59.703125 58.273438 L 65.171875 58.03125 L 65.070312 57.011719 L 71.371094 52.523438 L 71.453125 52.964844 L 76.339844 61.101562 L 77.085938 68.820312 L 73.832031 72.683594 L 71.070312 82.996094 L 110.050781 83.167969 L 109.980469 73.460938 L 107.835938 70.886719 L 107.320312 59.472656 L 102.691406 55.527344 L 94.726562 55.78125 L 92.515625 68.71875 C 87.617188 68.917969 82.507812 68.828125 77.320312 68.828125 L 85.492188 68.828125 L 85.492188 62.265625 Z M 101.171875 69.425781 L 93.285156 69.425781 L 96.285156 57.234375 L 101.507812 57.40625 L 101.164062 69.425781 Z M 104.226562 69.613281 L 103.238281 68.667969 L 103.238281 58.078125 L 105.765625 60.136719 L 105.640625 72.058594 L 104.226562 73.347656 Z M 72.039062 47.800781 L 64.363281 55.183594 L 63.988281 54.804688 L 71.835938 46.8125 Z M 78.464844 52.996094 L 72.484375 49.5 L 70.988281 50.523438 L 70.886719 49.839844 L 72.484375 48.066406 L 78.464844 52.988281 Z M 78.464844 52.996094 " fill-opacity="1" fill-rule="evenodd"/></g><g fill="#696969" fill-opacity="1"><g transform="translate(30.518219, 100.855976)"><g><path d="M 15.171875 -13.0625 L 15.171875 0 L 13.03125 0 L 13.03125 -8.953125 L 9.046875 0 L 7.5625 0 L 3.546875 -8.953125 L 3.546875 0 L 1.40625 0 L 1.40625 -13.0625 L 3.71875 -13.0625 L 8.3125 -2.8125 L 12.875 -13.0625 Z M 15.171875 -13.0625 "/></g></g></g><g fill="#696969" fill-opacity="1"><g transform="translate(47.097102, 100.855976)"><g><path d="M 0.703125 -5.21875 C 0.703125 -6.257812 0.914062 -7.179688 1.34375 -7.984375 C 1.78125 -8.785156 2.367188 -9.410156 3.109375 -9.859375 C 3.859375 -10.304688 4.679688 -10.53125 5.578125 -10.53125 C 6.390625 -10.53125 7.097656 -10.367188 7.703125 -10.046875 C 8.316406 -9.722656 8.804688 -9.328125 9.171875 -8.859375 L 9.171875 -10.359375 L 11.328125 -10.359375 L 11.328125 0 L 9.171875 0 L 9.171875 -1.546875 C 8.804688 -1.054688 8.3125 -0.644531 7.6875 -0.3125 C 7.0625 0.0078125 6.347656 0.171875 5.546875 0.171875 C 4.648438 0.171875 3.832031 -0.0546875 3.09375 -0.515625 C 2.363281 -0.972656 1.78125 -1.613281 1.34375 -2.4375 C 0.914062 -3.257812 0.703125 -4.1875 0.703125 -5.21875 Z M 9.171875 -5.1875 C 9.171875 -5.90625 9.023438 -6.523438 8.734375 -7.046875 C 8.441406 -7.578125 8.054688 -7.976562 7.578125 -8.25 C 7.097656 -8.53125 6.582031 -8.671875 6.03125 -8.671875 C 5.476562 -8.671875 4.960938 -8.535156 4.484375 -8.265625 C 4.015625 -7.992188 3.628906 -7.597656 3.328125 -7.078125 C 3.035156 -6.554688 2.890625 -5.9375 2.890625 -5.21875 C 2.890625 -4.507812 3.035156 -3.882812 3.328125 -3.34375 C 3.628906 -2.800781 4.019531 -2.390625 4.5 -2.109375 C 4.976562 -1.828125 5.488281 -1.6875 6.03125 -1.6875 C 6.582031 -1.6875 7.097656 -1.820312 7.578125 -2.09375 C 8.054688 -2.375 8.441406 -2.78125 8.734375 -3.3125 C 9.023438 -3.84375 9.171875 -4.46875 9.171875 -5.1875 Z M 9.171875 -5.1875 "/></g></g></g><g fill="#696969" fill-opacity="1"><g transform="translate(59.841414, 100.855976)"><g><path d="M 3.546875 -8.859375 C 3.859375 -9.378906 4.273438 -9.785156 4.796875 -10.078125 C 5.316406 -10.378906 5.9375 -10.53125 6.65625 -10.53125 L 6.65625 -8.3125 L 6.109375 -8.3125 C 5.265625 -8.3125 4.625 -8.097656 4.1875 -7.671875 C 3.757812 -7.242188 3.546875 -6.503906 3.546875 -5.453125 L 3.546875 0 L 1.40625 0 L 1.40625 -10.359375 L 3.546875 -10.359375 Z M 3.546875 -8.859375 "/></g></g></g><g fill="#696969" fill-opacity="1"><g transform="translate(67.059431, 100.855976)"><g><path d="M 0.703125 -5.1875 C 0.703125 -6.25 0.914062 -7.179688 1.34375 -7.984375 C 1.78125 -8.796875 2.378906 -9.421875 3.140625 -9.859375 C 3.898438 -10.304688 4.773438 -10.53125 5.765625 -10.53125 C 7.023438 -10.53125 8.0625 -10.226562 8.875 -9.625 C 9.695312 -9.03125 10.253906 -8.1875 10.546875 -7.09375 L 8.234375 -7.09375 C 8.046875 -7.601562 7.742188 -8 7.328125 -8.28125 C 6.910156 -8.570312 6.390625 -8.71875 5.765625 -8.71875 C 4.890625 -8.71875 4.191406 -8.40625 3.671875 -7.78125 C 3.148438 -7.164062 2.890625 -6.300781 2.890625 -5.1875 C 2.890625 -4.070312 3.148438 -3.203125 3.671875 -2.578125 C 4.191406 -1.953125 4.890625 -1.640625 5.765625 -1.640625 C 7.003906 -1.640625 7.828125 -2.179688 8.234375 -3.265625 L 10.546875 -3.265625 C 10.242188 -2.210938 9.675781 -1.375 8.84375 -0.75 C 8.019531 -0.132812 6.992188 0.171875 5.765625 0.171875 C 4.773438 0.171875 3.898438 -0.0507812 3.140625 -0.5 C 2.378906 -0.945312 1.78125 -1.570312 1.34375 -2.375 C 0.914062 -3.1875 0.703125 -4.125 0.703125 -5.1875 Z M 0.703125 -5.1875 "/></g></g></g><g fill="#696969" fill-opacity="1"><g transform="translate(78.337583, 100.855976)"><g><path d="M 10.90625 -5.4375 C 10.90625 -5.039062 10.878906 -4.6875 10.828125 -4.375 L 2.90625 -4.375 C 2.96875 -3.550781 3.273438 -2.890625 3.828125 -2.390625 C 4.378906 -1.890625 5.054688 -1.640625 5.859375 -1.640625 C 7.015625 -1.640625 7.832031 -2.117188 8.3125 -3.078125 L 10.625 -3.078125 C 10.3125 -2.128906 9.742188 -1.347656 8.921875 -0.734375 C 8.097656 -0.128906 7.078125 0.171875 5.859375 0.171875 C 4.867188 0.171875 3.984375 -0.0507812 3.203125 -0.5 C 2.421875 -0.945312 1.804688 -1.570312 1.359375 -2.375 C 0.921875 -3.1875 0.703125 -4.125 0.703125 -5.1875 C 0.703125 -6.25 0.914062 -7.179688 1.34375 -7.984375 C 1.78125 -8.796875 2.390625 -9.421875 3.171875 -9.859375 C 3.953125 -10.304688 4.847656 -10.53125 5.859375 -10.53125 C 6.835938 -10.53125 7.707031 -10.316406 8.46875 -9.890625 C 9.238281 -9.460938 9.835938 -8.863281 10.265625 -8.09375 C 10.691406 -7.320312 10.90625 -6.4375 10.90625 -5.4375 Z M 8.671875 -6.109375 C 8.648438 -6.898438 8.363281 -7.53125 7.8125 -8 C 7.269531 -8.476562 6.585938 -8.71875 5.765625 -8.71875 C 5.023438 -8.71875 4.390625 -8.484375 3.859375 -8.015625 C 3.335938 -7.546875 3.03125 -6.910156 2.9375 -6.109375 Z M 8.671875 -6.109375 "/></g></g></g><g fill="#696969" fill-opacity="1"><g transform="translate(89.935288, 100.855976)"><g><path d="M 8.40625 -6.703125 C 9.101562 -6.578125 9.695312 -6.207031 10.1875 -5.59375 C 10.675781 -4.988281 10.921875 -4.296875 10.921875 -3.515625 C 10.921875 -2.847656 10.75 -2.25 10.40625 -1.71875 C 10.0625 -1.1875 9.5625 -0.765625 8.90625 -0.453125 C 8.257812 -0.148438 7.503906 0 6.640625 0 L 1.40625 0 L 1.40625 -13.0625 L 6.390625 -13.0625 C 7.273438 -13.0625 8.035156 -12.910156 8.671875 -12.609375 C 9.316406 -12.304688 9.800781 -11.898438 10.125 -11.390625 C 10.457031 -10.890625 10.625 -10.328125 10.625 -9.703125 C 10.625 -8.953125 10.421875 -8.320312 10.015625 -7.8125 C 9.617188 -7.3125 9.082031 -6.941406 8.40625 -6.703125 Z M 3.546875 -7.578125 L 6.203125 -7.578125 C 6.898438 -7.578125 7.445312 -7.734375 7.84375 -8.046875 C 8.238281 -8.367188 8.4375 -8.832031 8.4375 -9.4375 C 8.4375 -10.019531 8.238281 -10.476562 7.84375 -10.8125 C 7.445312 -11.144531 6.898438 -11.3125 6.203125 -11.3125 L 3.546875 -11.3125 Z M 6.453125 -1.75 C 7.171875 -1.75 7.738281 -1.921875 8.15625 -2.265625 C 8.570312 -2.617188 8.78125 -3.109375 8.78125 -3.734375 C 8.78125 -4.378906 8.5625 -4.890625 8.125 -5.265625 C 7.6875 -5.640625 7.101562 -5.828125 6.375 -5.828125 L 3.546875 -5.828125 L 3.546875 -1.75 Z M 6.453125 -1.75 "/></g></g></g><g fill="#696969" fill-opacity="1"><g transform="translate(101.777347, 100.855976)"><g><path d="M 2.5 -11.734375 C 2.113281 -11.734375 1.785156 -11.863281 1.515625 -12.125 C 1.253906 -12.382812 1.125 -12.707031 1.125 -13.09375 C 1.125 -13.488281 1.253906 -13.816406 1.515625 -14.078125 C 1.785156 -14.335938 2.113281 -14.46875 2.5 -14.46875 C 2.875 -14.46875 3.191406 -14.335938 3.453125 -14.078125 C 3.722656 -13.816406 3.859375 -13.488281 3.859375 -13.09375 C 3.859375 -12.707031 3.722656 -12.382812 3.453125 -12.125 C 3.191406 -11.863281 2.875 -11.734375 2.5 -11.734375 Z M 3.546875 -10.359375 L 3.546875 0 L 1.40625 0 L 1.40625 -10.359375 Z M 3.546875 -10.359375 "/></g></g></g><g fill="#696969" fill-opacity="1"><g transform="translate(106.739734, 100.855976)"><g><path d="M 5.578125 -10.53125 C 6.378906 -10.53125 7.085938 -10.367188 7.703125 -10.046875 C 8.328125 -9.722656 8.816406 -9.328125 9.171875 -8.859375 L 9.171875 -10.359375 L 11.328125 -10.359375 L 11.328125 0.171875 C 11.328125 1.117188 11.125 1.960938 10.71875 2.703125 C 10.320312 3.453125 9.742188 4.039062 8.984375 4.46875 C 8.234375 4.894531 7.332031 5.109375 6.28125 5.109375 C 4.875 5.109375 3.707031 4.78125 2.78125 4.125 C 1.851562 3.46875 1.328125 2.578125 1.203125 1.453125 L 3.328125 1.453125 C 3.492188 1.984375 3.84375 2.414062 4.375 2.75 C 4.90625 3.082031 5.539062 3.25 6.28125 3.25 C 7.144531 3.25 7.84375 2.984375 8.375 2.453125 C 8.90625 1.929688 9.171875 1.171875 9.171875 0.171875 L 9.171875 -1.5625 C 8.804688 -1.070312 8.3125 -0.660156 7.6875 -0.328125 C 7.070312 0.00390625 6.367188 0.171875 5.578125 0.171875 C 4.679688 0.171875 3.859375 -0.0546875 3.109375 -0.515625 C 2.367188 -0.972656 1.78125 -1.613281 1.34375 -2.4375 C 0.914062 -3.257812 0.703125 -4.1875 0.703125 -5.21875 C 0.703125 -6.257812 0.914062 -7.179688 1.34375 -7.984375 C 1.78125 -8.785156 2.367188 -9.410156 3.109375 -9.859375 C 3.859375 -10.304688 4.679688 -10.53125 5.578125 -10.53125 Z M 9.171875 -5.1875 C 9.171875 -5.90625 9.023438 -6.523438 8.734375 -7.046875 C 8.441406 -7.578125 8.054688 -7.976562 7.578125 -8.25 C 7.097656 -8.53125 6.582031 -8.671875 6.03125 -8.671875 C 5.476562 -8.671875 4.960938 -8.535156 4.484375 -8.265625 C 4.015625 -7.992188 3.628906 -7.597656 3.328125 -7.078125 C 3.035156 -6.554688 2.890625 -5.9375 2.890625 -5.21875 C 2.890625 -4.507812 3.035156 -3.882812 3.328125 -3.34375 C 3.628906 -2.800781 4.019531 -2.390625 4.5 -2.109375 C 4.976562 -1.828125 5.488281 -1.6875 6.03125 -1.6875 C 6.582031 -1.6875 7.097656 -1.820312 7.578125 -2.09375 C 8.054688 -2.375 8.441406 -2.78125 8.734375 -3.3125 C 9.023438 -3.84375 9.171875 -4.46875 9.171875 -5.1875 Z M 9.171875 -5.1875 "/></g></g></g></svg>